<svg width="10" height="10" viewBox="0 0 10 10" fill="none" xmlns="http://www.w3.org/2000/svg">
<path d="M1.25005 8.4375L1.25005 1.5625C1.24944 1.39775 1.29243 1.23577 1.37466 1.09301C1.4569 0.95025 1.57545 0.831793 1.71827 0.749669C1.8611 0.667545 2.02311 0.624679 2.18786 0.625423C2.35261 0.626168 2.51423 0.670496 2.6563 0.753907L8.59381 4.1875C8.73661 4.2697 8.85522 4.38809 8.9377 4.53073C9.02017 4.67337 9.0636 4.83523 9.0636 5C9.0636 5.16477 9.02017 5.32663 8.9377 5.46927C8.85522 5.61191 8.73661 5.7303 8.59381 5.8125L2.6563 9.24609C2.51423 9.3295 2.35261 9.37383 2.18786 9.37458C2.02311 9.37532 1.8611 9.33246 1.71827 9.25033C1.57545 9.16821 1.4569 9.04975 1.37466 8.90699C1.29243 8.76423 1.24944 8.60225 1.25005 8.4375ZM8.28131 4.73047L2.3438 1.29297C2.29657 1.26475 2.24258 1.24985 2.18755 1.24985C2.13253 1.24985 2.07854 1.26475 2.0313 1.29297C1.98369 1.32 1.94413 1.3592 1.91667 1.40657C1.88921 1.45393 1.87485 1.50775 1.87505 1.5625L1.87505 8.4375C1.87485 8.49225 1.88921 8.54607 1.91667 8.59343C1.94413 8.6408 1.98369 8.68 2.0313 8.70703C2.07854 8.73525 2.13253 8.75015 2.18755 8.75015C2.24258 8.75015 2.29657 8.73525 2.3438 8.70703L8.28131 5.26953C8.3283 5.24196 8.36727 5.20258 8.39434 5.1553C8.42142 5.10802 8.43566 5.05448 8.43566 5C8.43566 4.94552 8.42142 4.89198 8.39434 4.8447C8.36727 4.79742 8.3283 4.75804 8.28131 4.73047Z" fill="black"/>
</svg>
