<svg width="20" height="20" viewBox="0 0 20 20" fill="none" xmlns="http://www.w3.org/2000/svg">
<g clip-path="url(#clip0_316_6)">
<path d="M9.99996 6.66669C9.1159 6.66669 8.26806 7.01788 7.64294 7.643C7.01782 8.26812 6.66663 9.11597 6.66663 10C6.66663 10.8841 7.01782 11.7319 7.64294 12.357C8.26806 12.9822 9.1159 13.3334 9.99996 13.3334C10.884 13.3334 11.7319 12.9822 12.357 12.357C12.9821 11.7319 13.3333 10.8841 13.3333 10C13.3333 9.11597 12.9821 8.26812 12.357 7.643C11.7319 7.01788 10.884 6.66669 9.99996 6.66669Z" fill="#545454"/>
<path fill-rule="evenodd" clip-rule="evenodd" d="M6 0C4.4087 0 2.88258 0.632141 1.75736 1.75736C0.632141 2.88258 0 4.4087 0 6L0 14C0 15.5913 0.632141 17.1174 1.75736 18.2426C2.88258 19.3679 4.4087 20 6 20H14C15.5913 20 17.1174 19.3679 18.2426 18.2426C19.3679 17.1174 20 15.5913 20 14V6C20 4.4087 19.3679 2.88258 18.2426 1.75736C17.1174 0.632141 15.5913 0 14 0L6 0ZM5.33333 10C5.33333 8.76232 5.825 7.57534 6.70017 6.70017C7.57534 5.825 8.76232 5.33333 10 5.33333C11.2377 5.33333 12.4247 5.825 13.2998 6.70017C14.175 7.57534 14.6667 8.76232 14.6667 10C14.6667 11.2377 14.175 12.4247 13.2998 13.2998C12.4247 14.175 11.2377 14.6667 10 14.6667C8.76232 14.6667 7.57534 14.175 6.70017 13.2998C5.825 12.4247 5.33333 11.2377 5.33333 10ZM14.6667 5.33333H16V4H14.6667V5.33333Z" fill="#545454"/>
</g>
<defs>
<clipPath id="clip0_316_6">
<rect width="20" height="20" fill="white"/>
</clipPath>
</defs>
</svg>
